#usda 1.0
(
    defaultPrim = "World"
    fallbackPrimTypes = {
        token[] BrepArray = ["Xform"]
    }
    metersPerUnit = 1
    upAxis = "Z"
)

def Xform "World"
{
    def Xform "Wall" (
        prepend apiSchemas = ["AecoElementAPI", "AecoClassificationAPI:ifc"]
    )
    {
        string aeco:class:ifc:code = "IfcWall"
        string aeco:id = "250e12ab-7329-5cfa-9149-ea39df43f1ca"

        def BrepArray "BodyExact" (
            prepend apiSchemas = ["BrepCurve3dLineAPI:edge3dLine", "BrepCurveUvNurbAPI", "BrepPointAPI:vertexPoint", "BrepSurfacePlaneAPI", "AecoDerivedGeometryAPI"]
        )
        {
            uniform token aeco:derived:approx = "exact"
            uniform token aeco:derived:role = "body"
            string aeco:derived:source = "250e12ab-7329-5cfa-9149-ea39df43f1ca"
            string aeco:derived:stamp = "aeco-ifc-exact 0.2.0 fixture"
            double aeco:derived:tolerance = 1.0000000044538646e-7
            uniform double2[] brep:curveUv:nurb:controlVertices = [(0, 0), (0, -0.3), (0, -0.3), (2.1, -0.3), (2.1, -0.3), (2.1, 0), (2.1, 0), (0, 0), (0, 0), (0, -0.3), (0, -0.30000000000000004), (2.1, -0.30000000000000004), (2.1, -0.3), (2.1, 0), (2.1, 0), (0, 0), (0, 0), (0, -0.3), (0, -0.30000000000000004), (1.8, -0.30000000000000004), (1.7999999999999998, -0.3), (1.7999999999999998, 0), (1.8, 0), (0, 0), (0, 0), (0, -0.3), (0, -0.30000000000000004), (2.1, -0.30000000000000004), (2.1, -0.3), (2.1, 0), (2.1, 0), (0, 0), (0, 0), (0, -0.3), (0, -0.3), (2.1, -0.3), (2.1, -0.3), (2.1, 0), (2.1, 0), (0, 0), (0, 0), (0, -0.3), (0, -0.3), (4, -0.3), (4, -0.3), (4, 0), (4, 0), (0, 0), (0, 0), (0, -0.3), (0, -0.3), (6, -0.3), (6, -0.3), (6, 0), (6, 0), (0, 0), (0, 0), (0, -0.3), (0, -0.3), (4, -0.3), (4, -0.3), (4, 0), (4, 0), (0, 0), (2.1, 0), (0, 0), (0, 0), (0, -4), (0, -4), (6, -4), (6, -4), (6, 0), (6, 0), (3.9, 0), (3.9, 0), (3.9, -2.1), (3.9, -2.1), (2.0999999999999996, -2.1), (2.1, -2.1), (2.1, 0), (2.1, 0), (0, 0), (0, 0), (0, -4), (0, -4), (6, -4), (6, -4), (6, 0), (6, 0), (3.9, 0), (3.9, 0), (3.9, -2.1), (3.9, -2.1), (2.0999999999999996, -2.1), (2.1, -2.1), (2.1, 0)]
            uniform double[] brep:curveUv:nurb:knots = [0, 0, 0.3, 0.3, 0, 0, 2.1, 2.1, 0, 0, 0.3, 0.3, 0, 0, 2.1, 2.1, 0, 0, 0.3, 0.3, 0, 0, 2.1, 2.1, 0, 0, 0.3, 0.3, 0, 0, 2.1, 2.1, 0, 0, 0.3, 0.3, 0, 0, 1.8, 1.8, 0, 0, 0.3, 0.3, 0, 0, 1.8, 1.8, 0, 0, 0.3, 0.3, 0, 0, 2.1, 2.1, 0, 0, 0.3, 0.3, 0, 0, 2.1, 2.1, 0, 0, 0.3, 0.3, 3.9, 3.9, 6, 6, 0, 0, 0.3, 0.3, 3.9, 3.9, 6, 6, 0, 0, 0.3, 0.3, 0, 0, 4, 4, 0, 0, 0.3, 0.3, 0, 0, 4, 4, 0, 0, 0.3, 0.3, 0, 0, 6, 6, 0, 0, 0.3, 0.3, 0, 0, 6, 6, 0, 0, 0.3, 0.3, 0, 0, 4, 4, 0, 0, 0.3, 0.3, 0, 0, 4, 4, 0, 0, 2.1, 2.1, 0, 0, 4, 4, 0, 0, 6, 6, 0, 0, 4, 4, 3.9, 3.9, 6, 6, 0, 0, 2.1, 2.1, 0, 0, 1.8, 1.8, 0, 0, 2.1, 2.1, 0, 0, 2.1, 2.1, 0, 0, 4, 4, 0, 0, 6, 6, 0, 0, 4, 4, 3.9, 3.9, 6, 6, 0, 0, 2.1, 2.1, 0, 0, 1.8, 1.8, 0, 0, 2.1, 2.1]
            uniform uint[] brep:curveUv:nurb:order = [2, 2, 2, 2, 2, 2, 2, 2, 2, 2, 2, 2, 2, 2, 2, 2, 2, 2, 2, 2, 2, 2, 2, 2, 2, 2, 2, 2, 2, 2, 2, 2, 2, 2, 2, 2, 2, 2, 2, 2, 2, 2, 2, 2, 2, 2, 2, 2]
            uniform uint[] brep:curveUv:nurb:vertexCount = [2, 2, 2, 2, 2, 2, 2, 2, 2, 2, 2, 2, 2, 2, 2, 2, 2, 2, 2, 2, 2, 2, 2, 2, 2, 2, 2, 2, 2, 2, 2, 2, 2, 2, 2, 2, 2, 2, 2, 2, 2, 2, 2, 2, 2, 2, 2, 2]
            uniform double[] brep:curveUv:nurb:weights = [1, 1, 1, 1, 1, 1, 1, 1, 1, 1, 1, 1, 1, 1, 1, 1, 1, 1, 1, 1, 1, 1, 1, 1, 1, 1, 1, 1, 1, 1, 1, 1, 1, 1, 1, 1, 1, 1, 1, 1, 1, 1, 1, 1, 1, 1, 1, 1, 1, 1, 1, 1, 1, 1, 1, 1, 1, 1, 1, 1, 1, 1, 1, 1, 1, 1, 1, 1, 1, 1, 1, 1, 1, 1, 1, 1, 1, 1, 1, 1, 1, 1, 1, 1, 1, 1, 1, 1, 1, 1, 1, 1, 1, 1, 1, 1]
            uniform vector3d[] brep:edge3dLine:curve3d:line:direction = [(0, 1, 0), (-1, 0, 0), (0, 1, 0), (-1, 0, 0), (0, 1, 0), (0, 0, -1), (0, 0, -1), (0, 1, 0), (1, 0, 0), (1, 0, 0), (0, 1, 0), (0, 0, 1), (0, 0, 1), (-1, 0, 0), (0, 1, 0), (-1, 0, 0), (0, 0, 1), (0, 1, 0), (0, 0, 1), (0, 1, 0), (-1, 0, 0), (-1, 0, 0), (0, 0, 1), (0, 0, 1)]
            uniform point3d[] brep:edge3dLine:curve3d:line:origin = [(6, -0.15, 0), (6, 0.15, 0), (3.9, -0.15, 0), (6, -0.15, 0), (3.9, -0.15, 2.1), (3.9, 0.15000000000000002, 2.1), (3.9, -0.15, 2.1), (2.1, -0.15, 2.1), (2.1, 0.15000000000000002, 2.1), (2.1, -0.15, 2.1), (2.1, -0.15, 0), (2.1, 0.15000000000000002, 0), (2.1, -0.15, 0), (6, 0.15, 0), (0, -0.15, 0), (6, -0.15, 0), (0, 0.15, 0), (0, -0.15, 4), (0, -0.15, 0), (6, -0.15, 4), (6, 0.15, 4), (6, -0.15, 4), (6, 0.15, 0), (6, -0.15, 0)]
            uniform double3[] brep:extent = [(0, -0.15, 0), (6, 0.15000000000000002, 4)]
            uniform double[] brep:intersectTol3d = [0.00001]
            uniform uint[] brep:regionCount = [2]
            uniform vector3d[] brep:surface:plane:axis = [(0, -0, 1), (-1, 0, 0), (0, 0, -1), (1, 0, 0), (0, -0, 1), (1, 0, 0), (0, -0, 1), (1, 0, 0), (0, -1, 0), (0, -1, 0)]
            uniform point3d[] brep:surface:plane:origin = [(6, -0.15, 0), (3.9, -0.15, 2.1), (2.1, -0.15, 2.1), (2.1, -0.15, 0), (2.1, -0.15, 0), (0, -0.15, 0), (6, -0.15, 4), (6, -0.15, 0), (6, -0.15, 0), (6, 0.15, 0)]
            uniform vector3d[] brep:surface:plane:refDirection = [(-1, 0, 0), (0, 0, -1), (1, 0, 0), (0, 0, 1), (-1, 0, 0), (0, 0, 1), (-1, 0, 0), (0, 0, 1), (-1, 0, 0), (-1, 0, 0)]
            uniform point3d[] brep:vertexPoint:point:position = [(6, -0.15, 0), (6, 0.15, 0), (3.9, 0.15, 0), (3.9, -0.15, 0), (3.9, -0.15, 2.1), (3.9, 0.15, 2.1), (2.1, -0.15, 2.1), (2.1, 0.15, 2.1), (2.1, -0.15, 0), (2.1, 0.15, 0), (0, 0.15, 0), (0, -0.15, 0), (0, 0.15, 4), (0, -0.15, 4), (6, -0.15, 4), (6, 0.15, 4)]
            uniform token[] edge:curveType = ["BrepCurve3dLineAPI", "BrepCurve3dLineAPI", "BrepCurve3dLineAPI", "BrepCurve3dLineAPI", "BrepCurve3dLineAPI", "BrepCurve3dLineAPI", "BrepCurve3dLineAPI", "BrepCurve3dLineAPI", "BrepCurve3dLineAPI", "BrepCurve3dLineAPI", "BrepCurve3dLineAPI", "BrepCurve3dLineAPI", "BrepCurve3dLineAPI", "BrepCurve3dLineAPI", "BrepCurve3dLineAPI", "BrepCurve3dLineAPI", "BrepCurve3dLineAPI", "BrepCurve3dLineAPI", "BrepCurve3dLineAPI", "BrepCurve3dLineAPI", "BrepCurve3dLineAPI", "BrepCurve3dLineAPI", "BrepCurve3dLineAPI", "BrepCurve3dLineAPI"]
            uniform double[] edge:range = [0, 0.3, 0, 2.1, 0, 0.3, 0, 2.1, 0, 0.3, 0, 2.1, 0, 2.1, 0, 0.3, 0, 1.8, 0, 1.8, 0, 0.3, 0, 2.1, 0, 2.1, 3.9, 6, 0, 0.3, 3.9, 6, 0, 4, 0, 0.3, 0, 4, 0, 0.3, 0, 6, 0, 6, 0, 4, 0, 4]
            uniform int2[] edge:vertexIndices = [(0, 1), (1, 2), (3, 2), (0, 3), (4, 5), (5, 2), (4, 3), (6, 7), (7, 5), (6, 4), (8, 9), (9, 7), (8, 6), (9, 10), (11, 10), (8, 11), (10, 12), (13, 12), (11, 13), (14, 15), (15, 12), (14, 13), (1, 15), (0, 14)]
            uniform uint[] edgeuse:edgeIndex = [0, 1, 2, 3, 4, 5, 2, 6, 7, 8, 4, 9, 10, 11, 7, 12, 10, 13, 14, 15, 14, 16, 17, 18, 19, 20, 17, 21, 0, 22, 19, 23, 3, 23, 21, 18, 15, 12, 9, 6, 1, 22, 20, 16, 13, 11, 8, 5]
            uniform uint[] edgeuse:nextRadialEUIndex = [28, 40, 6, 32, 10, 47, 2, 39, 14, 46, 4, 38, 16, 45, 8, 37, 12, 44, 20, 36, 18, 43, 26, 35, 30, 42, 22, 34, 0, 41, 24, 33, 3, 31, 27, 23, 19, 15, 11, 7, 1, 29, 25, 21, 17, 13, 9, 5]
            uniform token[] edgeuse:orientationType = ["same", "same", "opposite", "opposite", "same", "same", "opposite", "opposite", "same", "same", "opposite", "opposite", "same", "same", "opposite", "opposite", "same", "same", "opposite", "opposite", "same", "same", "opposite", "opposite", "same", "same", "opposite", "opposite", "same", "same", "opposite", "opposite", "opposite", "same", "same", "opposite", "opposite", "same", "same", "same", "opposite", "same", "same", "opposite", "opposite", "same", "same", "same"]
            uniform token[] edgeuse:thisRadialEntryType = ["topEntry", "topEntry", "bottomEntry", "bottomEntry", "topEntry", "topEntry", "bottomEntry", "bottomEntry", "topEntry", "topEntry", "bottomEntry", "bottomEntry", "topEntry", "topEntry", "bottomEntry", "bottomEntry", "topEntry", "topEntry", "bottomEntry", "bottomEntry", "topEntry", "topEntry", "bottomEntry", "bottomEntry", "topEntry", "topEntry", "bottomEntry", "bottomEntry", "topEntry", "topEntry", "bottomEntry", "bottomEntry", "bottomEntry", "topEntry", "topEntry", "bottomEntry", "bottomEntry", "topEntry", "topEntry", "topEntry", "bottomEntry", "topEntry", "topEntry", "bottomEntry", "bottomEntry", "topEntry", "topEntry", "topEntry"]
            float3[] extent = [(0, -0.15, 0), (6, 0.15, 4)]
            uniform uint[] face:loopCount = [1, 1, 1, 1, 1, 1, 1, 1, 1, 1]
            uniform double2[] face:range = [(0, -0.3), (2.1, 0), (0, -0.30000000000000004), (2.1, 0), (0, -0.30000000000000004), (1.8, 0), (0, -0.30000000000000004), (2.1, 0), (0, -0.3), (2.1, 0), (0, -0.3), (4, 0), (0, -0.3), (6, 0), (0, -0.3), (4, 0), (0, -4), (6, 0), (0, -4), (6, 0)]
            uniform token[] face:surfaceType = ["BrepSurfacePlaneAPI", "BrepSurfacePlaneAPI", "BrepSurfacePlaneAPI", "BrepSurfacePlaneAPI", "BrepSurfacePlaneAPI", "BrepSurfacePlaneAPI", "BrepSurfacePlaneAPI", "BrepSurfacePlaneAPI", "BrepSurfacePlaneAPI", "BrepSurfacePlaneAPI"]
            uniform token[] face:trimType = ["general", "general", "general", "general", "general", "general", "general", "general", "general", "general"]
            uniform uint[] faceuse:faceIndex = [0, 1, 2, 3, 4, 5, 6, 7, 8, 9, 0, 1, 2, 3, 4, 5, 6, 7, 8, 9]
            uniform token[] faceuse:orientationType = ["opposite", "same", "same", "same", "opposite", "opposite", "same", "same", "same", "opposite", "same", "opposite", "opposite", "opposite", "same", "same", "opposite", "opposite", "opposite", "same"]
            uniform uint[] loop:edgeuseCount = [4, 4, 4, 4, 4, 4, 4, 4, 8, 8]
            uniform uint[] loop:vertexIndex = [0, 0, 0, 0, 0, 0, 0, 0, 0, 0]
            rel proxyPrim = </World/Wall/Body>
            uniform token purpose = "render"
            uniform uint[] region:shellCount = [1, 1]
            uniform token[] region:type = ["voidRegion", "solidRegion"]
            uniform uint[] shell:faceuseCount = [10, 10]
            uniform token[] shell:pointType = ["none", "none"]
            uniform uint[] shell:wireEdgeCount = [0, 0]
            uniform token[] vertex:pointType = ["BrepPointAPI", "BrepPointAPI", "BrepPointAPI", "BrepPointAPI", "BrepPointAPI", "BrepPointAPI", "BrepPointAPI", "BrepPointAPI", "BrepPointAPI", "BrepPointAPI", "BrepPointAPI", "BrepPointAPI", "BrepPointAPI", "BrepPointAPI", "BrepPointAPI", "BrepPointAPI"]
        }

        def Mesh "Body" (
            prepend apiSchemas = ["AecoDerivedGeometryAPI"]
        )
        {
            uniform token aeco:derived:approx = "tessellated"
            rel aeco:derived:from = </World/Wall/BodyExact>
            uniform token aeco:derived:role = "body"
            string aeco:derived:source = "250e12ab-7329-5cfa-9149-ea39df43f1ca"
            string aeco:derived:stamp = "aeco-ifc-exact 0.2.0 source=b3000d9aeaad007badc644c6bb0571ebcac8df43abe1353403131cd09d8579dc"
            double aeco:derived:tolerance = 0.0001
            uniform bool doubleSided = 1
            float3[] extent = [(0, -0.15, 0), (6, 0.15, 4)]
            int[] faceVertexCounts = [3, 3, 3, 3, 3, 3, 3, 3, 3, 3, 3, 3, 3, 3, 3, 3, 3, 3, 3, 3, 3, 3, 3, 3, 3, 3, 3, 3]
            int[] faceVertexIndices = [1, 0, 3, 2, 1, 3, 7, 4, 5, 7, 5, 6, 11, 8, 9, 11, 9, 10, 15, 12, 13, 15, 13, 14, 17, 16, 19, 18, 17, 19, 20, 21, 23, 22, 20, 23, 27, 24, 25, 27, 25, 26, 31, 28, 29, 31, 29, 30, 33, 34, 39, 38, 39, 34, 35, 38, 34, 32, 33, 39, 36, 37, 38, 36, 38, 35, 47, 42, 40, 42, 47, 46, 42, 46, 43, 47, 40, 41, 46, 45, 44, 43, 46, 44]
            point3f[] points = [(6, -0.15, 0), (6, 0.15, 0), (3.9, 0.15, 0), (3.9, -0.15, 0), (3.9, -0.15, 2.1), (3.9, 0.15, 2.1), (3.9, 0.15, 0), (3.9, -0.15, 0), (2.1, -0.15, 2.1), (2.1, 0.15, 2.1), (3.9, 0.15, 2.1), (3.9, -0.15, 2.1), (2.1, -0.15, 0), (2.1, 0.15, 0), (2.1, 0.15, 2.1), (2.1, -0.15, 2.1), (2.1, -0.15, 0), (2.1, 0.15, 0), (0, 0.15, 0), (0, -0.15, 0), (0, 0.15, 0), (0, -0.15, 0), (0, 0.15, 4), (0, -0.15, 4), (6, -0.15, 4), (6, 0.15, 4), (0, 0.15, 4), (0, -0.15, 4), (6, -0.15, 0), (6, 0.15, 0), (6, 0.15, 4), (6, -0.15, 4), (3.9, -0.15, 0), (6, -0.15, 0), (6, -0.15, 4), (0, -0.15, 4), (0, -0.15, 0), (2.1, -0.15, 0), (2.1, -0.15, 2.1), (3.9, -0.15, 2.1), (6, 0.15, 0), (3.9, 0.15, 0), (6, 0.15, 4), (0, 0.15, 4), (0, 0.15, 0), (2.1, 0.15, 0), (2.1, 0.15, 2.1), (3.9, 0.15, 2.1)]
            color3f[] primvars:displayColor = [(0.62, 0.73, 0.82)]
            uniform token purpose = "proxy"
            uniform token subdivisionScheme = "none"
        }

        def BasisCurves "Edges" (
            prepend apiSchemas = ["AecoDerivedGeometryAPI"]
        )
        {
            uniform token aeco:derived:approx = "arcSegmented"
            rel aeco:derived:from = </World/Wall/BodyExact>
            uniform token aeco:derived:role = "wireframe"
            string aeco:derived:source = "250e12ab-7329-5cfa-9149-ea39df43f1ca"
            string aeco:derived:stamp = "aeco-ifc-exact 0.2.0 source=b3000d9aeaad007badc644c6bb0571ebcac8df43abe1353403131cd09d8579dc"
            double aeco:derived:tolerance = 0.0001
            int[] curveVertexCounts = [2, 2, 2, 2, 2, 2, 2, 2, 2, 2, 2, 2, 2, 2, 2, 2, 2, 2, 2, 2, 2, 2, 2, 2]
            point3f[] points = [(6, -0.15, 0), (6, 0.15, 0), (6, 0.15, 0), (3.9, 0.15, 0), (3.9, 0.15, 0), (3.9, -0.15, 0), (3.9, -0.15, 0), (6, -0.15, 0), (3.9, -0.15, 2.1), (3.9, 0.15, 2.1), (3.9, 0.15, 2.1), (3.9, 0.15, 0), (3.9, -0.15, 0), (3.9, -0.15, 2.1), (2.1, -0.15, 2.1), (2.1, 0.15, 2.1), (2.1, 0.15, 2.1), (3.9, 0.15, 2.1), (3.9, -0.15, 2.1), (2.1, -0.15, 2.1), (2.1, -0.15, 0), (2.1, 0.15, 0), (2.1, 0.15, 0), (2.1, 0.15, 2.1), (2.1, -0.15, 2.1), (2.1, -0.15, 0), (2.1, 0.15, 0), (0, 0.15, 0), (0, 0.15, 0), (0, -0.15, 0), (0, -0.15, 0), (2.1, -0.15, 0), (0, 0.15, 0), (0, 0.15, 4), (0, 0.15, 4), (0, -0.15, 4), (0, -0.15, 4), (0, -0.15, 0), (6, -0.15, 4), (6, 0.15, 4), (6, 0.15, 4), (0, 0.15, 4), (0, -0.15, 4), (6, -0.15, 4), (6, 0.15, 0), (6, 0.15, 4), (6, -0.15, 4), (6, -0.15, 0)]
            color3f[] primvars:displayColor = [(0.04, 0.08, 0.12)]
            uniform token purpose = "guide"
            uniform token type = "linear"
            float[] widths = [0.004] (
                interpolation = "constant"
            )
            uniform token wrap = "nonperiodic"
        }
    }

    def Xform "Pipe" (
        prepend apiSchemas = ["AecoElementAPI", "AecoClassificationAPI:ifc"]
    )
    {
        string aeco:class:ifc:code = "IfcPipeSegment"
        string aeco:id = "d2a39da9-fd0a-5f4f-8514-a22dd5d5cb39"

        def BrepArray "BodyExact" (
            prepend apiSchemas = ["BrepCurve3dCircleAPI:edge3dCircle", "BrepCurve3dLineAPI:edge3dLine", "BrepCurve3dNurbAPI:edge3dNurb", "BrepCurveUvNurbAPI", "BrepPointAPI:vertexPoint", "BrepSurfaceCylinderAPI", "BrepSurfacePlaneAPI", "AecoDerivedGeometryAPI"]
        )
        {
            uniform token aeco:derived:approx = "exact"
            uniform token aeco:derived:role = "body"
            string aeco:derived:source = "d2a39da9-fd0a-5f4f-8514-a22dd5d5cb39"
            string aeco:derived:stamp = "aeco-ifc-exact 0.2.0 fixture"
            double aeco:derived:tolerance = 0.000006693186421257597
            uniform double2[] brep:curveUv:nurb:controlVertices = [(0, -2.460000000000001), (3.1415926535897967, -2.460000000000001), (3.1415926535897967, -2.460000000000001), (3.1415926535897967, 0), (3.1415926535897967, 0), (0, 0), (3.552713678800501e-15, 0), (3.552713678800501e-15, -2.46), (3.141592653589793, 0), (0, 0), (0, 0), (0, -2.460000000000001), (0, -2.460000000000001), (3.141592653589793, -2.460000000000001), (3.141592653589793, -2.46), (3.141592653589793, 0), (0.04, -2.5402337087400828e-18), (0.04, 0.039999999999999994), (5.5791156789971215e-18, 0.04), (-0.039999999999999994, 0.04), (-0.04, 2.35835348784933e-18), (-0.04, 2.35835348784933e-18), (-0.04000000000000001, -0.04000000000000006), (6.683621486182832e-17, -0.04), (0.04000000000000013, -0.03999999999999994), (0.04, 1.2977113905010113e-16), (0.04, -2.5402337087400828e-18), (0.04, 0.039999999999999994), (5.5791156789971215e-18, 0.04), (-0.039999999999999994, 0.04), (-0.04, 2.35835348784933e-18), (-0.04, 2.35835348784933e-18), (-0.04000000000000001, -0.04000000000000006), (6.683621486182832e-17, -0.04), (0.04000000000000013, -0.03999999999999994), (0.04, 1.2977113905010113e-16)]
            uniform double[] brep:curveUv:nurb:knots = [3.141592653589793, 3.141592653589793, 6.28318530717959, 6.28318530717959, -2.460000000000001, -2.460000000000001, 0, 0, 3.141592653589793, 3.141592653589793, 6.28318530717959, 6.28318530717959, 0, 0, 2.46, 2.46, 0, 0, 3.141592653589793, 3.141592653589793, -2.460000000000001, -2.460000000000001, 0, 0, 0, 0, 3.141592653589793, 3.141592653589793, 0, 0, 2.46, 2.46, 0, 0, 0, 1.5707963267948966, 1.5707963267948966, 3.141592653589793, 3.141592653589793, 3.141592653589793, 3.141592653589793, 3.141592653589793, 3.141592653589793, 4.7123889803846915, 4.7123889803846915, 6.28318530717959, 6.28318530717959, 6.28318530717959, 0, 0, 0, 1.5707963267948966, 1.5707963267948966, 3.141592653589793, 3.141592653589793, 3.141592653589793, 3.141592653589793, 3.141592653589793, 3.141592653589793, 4.7123889803846915, 4.7123889803846915, 6.28318530717959, 6.28318530717959, 6.28318530717959]
            uniform uint[] brep:curveUv:nurb:order = [2, 2, 2, 2, 2, 2, 2, 2, 3, 3, 3, 3]
            uniform uint[] brep:curveUv:nurb:vertexCount = [2, 2, 2, 2, 2, 2, 2, 2, 5, 5, 5, 5]
            uniform double[] brep:curveUv:nurb:weights = [1, 1, 1, 1, 1, 1, 1, 1, 1, 1, 1, 1, 1, 1, 1, 1, 1, 0.7071067811865476, 1, 0.7071067811865476, 1, 1, 0.7071067811865469, 1, 0.7071067811865469, 1, 1, 0.7071067811865476, 1, 0.7071067811865476, 1, 1, 0.7071067811865469, 1, 0.7071067811865469, 1]
            uniform vector3d[] brep:edge3dCircle:curve3d:circle:axis = [(0, 0, 1), (0, 0, 1), (0, 0, 1), (0, 0, 1)]
            uniform point3d[] brep:edge3dCircle:curve3d:circle:center = [(0, 0, 2.46), (0, 0, 0), (0, 0, 0), (0, 0, 2.46)]
            uniform double[] brep:edge3dCircle:curve3d:circle:radius = [0.04, 0.04, 0.04, 0.04]
            uniform vector3d[] brep:edge3dCircle:curve3d:circle:refDirection = [(-1, 1.2246467991473532e-16, 0), (-1, 1.2246467991473532e-16, 0), (1, 0, -0), (1, 0, -0)]
            uniform vector3d[] brep:edge3dLine:curve3d:line:direction = [(0, 0, 1)]
            uniform point3d[] brep:edge3dLine:curve3d:line:origin = [(0.04, 0, 0)]
            uniform point3d[] brep:edge3dNurb:curve3d:nurb:controlVertices = [(-0.04, 4.898587196589413e-18, 2.460000000000001), (-0.04, 4.898587196589413e-18, 0)]
            uniform double[] brep:edge3dNurb:curve3d:nurb:knots = [-2.460000000000001, -2.460000000000001, 0, 0]
            uniform uint[] brep:edge3dNurb:curve3d:nurb:order = [2]
            uniform uint[] brep:edge3dNurb:curve3d:nurb:vertexCount = [2]
            uniform double[] brep:edge3dNurb:curve3d:nurb:weights = [1, 1]
            uniform double3[] brep:extent = [(-0.040000100000000004, -0.040000100000000004, -1e-7), (0.040000100000000004, 0.040000100000000004, 2.4600001000000007)]
            uniform double[] brep:intersectTol3d = [0.00001]
            uniform uint[] brep:regionCount = [2]
            uniform vector3d[] brep:surface:cylinder:axis = [(-0, -0, -1), (-0, -0, -1)]
            uniform point3d[] brep:surface:cylinder:origin = [(0, 0, 0), (0, 0, 0)]
            uniform double[] brep:surface:cylinder:radius = [0.04, 0.04]
            uniform vector3d[] brep:surface:cylinder:refDirection = [(1, 3.3077843189710302e-15, -0), (-1, 1.2246467991473532e-16, 0)]
            uniform vector3d[] brep:surface:plane:axis = [(0, 0, 1), (0, 0, 1)]
            uniform point3d[] brep:surface:plane:origin = [(-3.129822080702415e-18, 2.5402337087400828e-18, 0), (-3.129822080702415e-18, 2.5402337087400828e-18, 2.46)]
            uniform vector3d[] brep:surface:plane:refDirection = [(1, 0, -0), (1, 0, 0)]
            uniform point3d[] brep:vertexPoint:point:position = [(-0.04, 4.898587196589413e-18, 2.460000000000001), (0.04, 0, 2.46), (-0.04, 4.898587196589413e-18, 0), (0.04, 0, 0)]
            uniform token[] edge:curveType = ["BrepCurve3dCircleAPI", "BrepCurve3dNurbAPI", "BrepCurve3dCircleAPI", "BrepCurve3dLineAPI", "BrepCurve3dCircleAPI", "BrepCurve3dCircleAPI"]
            uniform double[] edge:range = [0, 3.1415926535897967, -2.460000000000001, 0, 0, 3.1415926535897967, 0, 2.46, 0, 3.141592653589793, 0, 3.141592653589793]
            uniform int2[] edge:vertexIndices = [(0, 1), (0, 2), (2, 3), (3, 1), (3, 2), (1, 0)]
            uniform uint[] edgeuse:edgeIndex = [0, 1, 2, 3, 4, 1, 5, 3, 4, 2, 5, 0]
            uniform uint[] edgeuse:nextRadialEUIndex = [11, 5, 9, 7, 8, 1, 10, 3, 4, 2, 6, 0]
            uniform token[] edgeuse:orientationType = ["opposite", "same", "same", "same", "same", "opposite", "opposite", "opposite", "same", "same", "same", "same"]
            uniform token[] edgeuse:thisRadialEntryType = ["bottomEntry", "topEntry", "topEntry", "topEntry", "topEntry", "bottomEntry", "bottomEntry", "bottomEntry", "topEntry", "topEntry", "topEntry", "topEntry"]
            float3[] extent = [(-0.0400001, -0.0400001, -1e-7), (0.0400001, 0.0400001, 2.46)]
            uniform uint[] face:loopCount = [1, 1, 1, 1]
            uniform double2[] face:range = [(0, -2.460000000000001), (3.1415926535897967, 0), (0, -2.460000000000001), (3.141592653589793, 0), (-0.04, -0.04), (0.04, 0.04), (-0.04, -0.04), (0.04, 0.04)]
            uniform token[] face:surfaceType = ["BrepSurfaceCylinderAPI", "BrepSurfaceCylinderAPI", "BrepSurfacePlaneAPI", "BrepSurfacePlaneAPI"]
            uniform token[] face:trimType = ["general", "general", "general", "general"]
            uniform uint[] faceuse:faceIndex = [0, 1, 2, 3, 0, 1, 2, 3]
            uniform token[] faceuse:orientationType = ["same", "same", "opposite", "same", "opposite", "opposite", "same", "opposite"]
            uniform uint[] loop:edgeuseCount = [4, 4, 2, 2]
            uniform uint[] loop:vertexIndex = [0, 0, 0, 0]
            rel proxyPrim = </World/Pipe/Body>
            uniform token purpose = "render"
            uniform uint[] region:shellCount = [1, 1]
            uniform token[] region:type = ["voidRegion", "solidRegion"]
            uniform uint[] shell:faceuseCount = [4, 4]
            uniform token[] shell:pointType = ["none", "none"]
            uniform uint[] shell:wireEdgeCount = [0, 0]
            uniform token[] vertex:pointType = ["BrepPointAPI", "BrepPointAPI", "BrepPointAPI", "BrepPointAPI"]
        }

        def Mesh "Body" (
            prepend apiSchemas = ["AecoDerivedGeometryAPI"]
        )
        {
            uniform token aeco:derived:approx = "tessellated"
            rel aeco:derived:from = </World/Pipe/BodyExact>
            uniform token aeco:derived:role = "body"
            string aeco:derived:source = "d2a39da9-fd0a-5f4f-8514-a22dd5d5cb39"
            string aeco:derived:stamp = "aeco-ifc-exact 0.2.0 source=c6b7d6bad016f1219cc91f2940eace7b851a27dfe7b64e5f5064a0af7759b96a"
            double aeco:derived:tolerance = 0.0001
            uniform bool doubleSided = 1
            float3[] extent = [(-0.04, -0.039999943, 0), (0.04, 0.039999943, 2.46)]
            int[] faceVertexCounts = [3, 3, 3, 3, 3, 3, 3, 3, 3, 3, 3, 3, 3, 3, 3, 3, 3, 3, 3, 3, 3, 3, 3, 3, 3, 3, 3, 3, 3, 3, 3, 3, 3, 3, 3, 3, 3, 3, 3, 3, 3, 3, 3, 3, 3, 3, 3, 3, 3, 3, 3, 3, 3, 3, 3, 3, 3, 3, 3, 3, 3, 3, 3, 3, 3, 3, 3, 3, 3, 3, 3, 3, 3, 3, 3, 3, 3, 3, 3, 3, 3, 3, 3, 3, 3, 3, 3, 3, 3, 3, 3, 3, 3, 3, 3, 3, 3, 3, 3, 3, 3, 3, 3, 3, 3, 3, 3, 3, 3, 3, 3, 3, 3, 3, 3, 3, 3, 3, 3, 3, 3, 3, 3, 3, 3, 3, 3, 3, 3, 3, 3, 3, 3, 3, 3, 3, 3, 3, 3, 3, 3, 3, 3, 3, 3, 3, 3, 3, 3, 3, 3, 3, 3, 3, 3, 3, 3, 3, 3, 3, 3, 3, 3, 3, 3, 3, 3, 3, 3, 3, 3, 3, 3, 3, 3, 3, 3, 3, 3, 3, 3, 3, 3, 3, 3, 3, 3, 3, 3, 3, 3, 3, 3, 3, 3, 3, 3, 3, 3, 3, 3, 3, 3, 3, 3, 3, 3, 3, 3, 3, 3, 3, 3, 3, 3, 3, 3, 3, 3, 3, 3, 3, 3, 3, 3, 3, 3, 3, 3, 3, 3, 3, 3, 3, 3, 3, 3, 3, 3, 3, 3, 3, 3, 3, 3, 3, 3, 3, 3, 3, 3, 3, 3, 3, 3, 3, 3, 3, 3, 3, 3, 3, 3, 3, 3, 3, 3, 3, 3, 3, 3, 3, 3, 3, 3, 3, 3, 3, 3, 3, 3, 3, 3, 3, 3, 3, 3, 3, 3, 3, 3, 3, 3, 3, 3, 3, 3, 3, 3, 3, 3, 3, 3, 3, 3, 3, 3, 3, 3, 3, 3, 3, 3, 3, 3, 3, 3, 3, 3, 3, 3, 3, 3, 3, 3, 3, 3, 3, 3, 3, 3, 3, 3, 3, 3, 3, 3, 3, 3, 3, 3, 3, 3, 3, 3, 3, 3, 3, 3, 3, 3, 3, 3, 3, 3, 3, 3, 3, 3, 3, 3, 3, 3, 3, 3, 3, 3, 3, 3, 3, 3, 3, 3, 3, 3, 3, 3, 3, 3, 3, 3, 3, 3, 3, 3, 3, 3, 3, 3, 3, 3, 3, 3, 3, 3, 3, 3, 3, 3, 3, 3, 3, 3, 3, 3, 3, 3, 3, 3, 3, 3, 3, 3, 3, 3, 3, 3, 3, 3, 3, 3, 3, 3, 3, 3, 3, 3, 3, 3, 3, 3, 3, 3, 3, 3, 3, 3, 3, 3, 3, 3, 3, 3, 3, 3, 3, 3, 3, 3, 3, 3, 3, 3, 3, 3, 3, 3, 3, 3, 3, 3, 3, 3, 3, 3, 3, 3, 3, 3, 3, 3, 3, 3, 3, 3, 3, 3, 3, 3, 3, 3, 3, 3, 3, 3, 3, 3, 3, 3, 3, 3, 3, 3, 3, 3, 3, 3, 3, 3, 3, 3, 3, 3, 3, 3, 3, 3, 3, 3, 3, 3, 3, 3, 3, 3, 3, 3, 3, 3, 3, 3, 3, 3, 3, 3, 3, 3, 3, 3, 3, 3, 3, 3, 3, 3, 3, 3, 3, 3, 3, 3, 3, 3, 3, 3, 3, 3, 3, 3, 3, 3, 3, 3, 3, 3, 3, 3, 3, 3, 3, 3, 3, 3, 3, 3, 3, 3, 3, 3, 3, 3, 3, 3, 3, 3, 3, 3, 3, 3, 3, 3, 3, 3, 3, 3, 3, 3, 3, 3, 3, 3, 3, 3, 3, 3, 3, 3, 3, 3, 3, 3, 3, 3, 3]
            int[] faceVertexIndices = [153, 76, 75, 152, 153, 75, 152, 75, 74, 151, 152, 74, 150, 151, 74, 150, 74, 73, 149, 73, 72, 149, 150, 73, 148, 72, 71, 148, 149, 72, 147, 71, 70, 147, 148, 71, 146, 70, 69, 146, 147, 70, 145, 68, 67, 145, 69, 68, 145, 146, 69, 144, 67, 66, 144, 145, 67, 143, 144, 66, 142, 143, 66, 142, 66, 65, 141, 142, 65, 141, 65, 64, 140, 141, 64, 140, 64, 63, 139, 140, 63, 139, 63, 62, 138, 139, 62, 138, 61, 60, 138, 62, 61, 137, 138, 60, 136, 137, 60, 136, 60, 59, 135, 136, 59, 135, 59, 58, 134, 135, 58, 134, 57, 56, 134, 58, 57, 133, 134, 56, 132, 133, 56, 132, 56, 55, 131, 132, 55, 131, 55, 54, 130, 131, 54, 130, 54, 53, 129, 53, 52, 129, 130, 53, 128, 52, 51, 128, 129, 52, 127, 51, 50, 127, 128, 51, 126, 50, 49, 126, 127, 50, 125, 49, 48, 125, 126, 49, 124, 48, 47, 124, 125, 48, 123, 46, 45, 123, 47, 46, 123, 124, 47, 122, 123, 45, 121, 45, 44, 121, 122, 45, 120, 44, 43, 120, 121, 44, 119, 42, 41, 119, 43, 42, 119, 120, 43, 118, 119, 41, 117, 118, 41, 117, 41, 40, 116, 117, 40, 116, 40, 39, 115, 116, 39, 115, 39, 38, 114, 115, 38, 114, 37, 36, 114, 38, 37, 113, 114, 36, 112, 113, 36, 112, 35, 34, 112, 36, 35, 111, 112, 34, 110, 111, 34, 110, 33, 32, 110, 34, 33, 109, 32, 31, 109, 110, 32, 108, 109, 31, 107, 30, 29, 107, 31, 30, 107, 108, 31, 106, 107, 29, 105, 29, 28, 105, 106, 29, 104, 28, 27, 104, 105, 28, 103, 27, 26, 103, 104, 27, 102, 26, 25, 102, 103, 26, 101, 24, 23, 101, 25, 24, 101, 102, 25, 100, 101, 23, 99, 23, 22, 99, 100, 23, 98, 22, 21, 98, 99, 22, 97, 21, 20, 97, 98, 21, 96, 20, 19, 96, 97, 20, 95, 18, 17, 95, 19, 18, 95, 96, 19, 94, 95, 17, 93, 16, 15, 93, 17, 16, 93, 94, 17, 92, 93, 15, 92, 15, 14, 91, 92, 14, 91, 14, 13, 90, 91, 13, 89, 90, 13, 89, 13, 12, 88, 11, 10, 88, 12, 11, 88, 89, 12, 87, 88, 10, 86, 10, 9, 86, 87, 10, 85, 9, 8, 85, 86, 9, 84, 8, 7, 84, 85, 8, 83, 7, 6, 83, 84, 7, 82, 6, 5, 82, 83, 6, 81, 5, 4, 81, 82, 5, 80, 4, 3, 80, 81, 4, 79, 2, 1, 79, 3, 2, 79, 80, 3, 78, 79, 1, 77, 1, 0, 77, 78, 1, 229, 231, 307, 229, 230, 231, 228, 307, 306, 228, 229, 307, 227, 306, 305, 227, 228, 306, 226, 305, 304, 226, 227, 305, 225, 304, 303, 225, 226, 304, 224, 303, 302, 224, 225, 303, 223, 302, 301, 223, 224, 302, 222, 301, 300, 222, 223, 301, 221, 300, 299, 221, 222, 300, 220, 299, 298, 220, 221, 299, 219, 220, 298, 219, 298, 297, 218, 219, 297, 218, 297, 296, 217, 218, 296, 217, 296, 295, 216, 217, 295, 216, 295, 294, 215, 216, 294, 215, 294, 293, 214, 215, 293, 214, 293, 292, 213, 214, 292, 213, 291, 290, 213, 292, 291, 212, 213, 290, 211, 289, 288, 211, 290, 289, 211, 212, 290, 210, 211, 288, 210, 288, 287, 209, 210, 287, 208, 286, 285, 208, 287, 286, 208, 209, 287, 207, 208, 285, 206, 285, 284, 206, 207, 285, 205, 284, 283, 205, 206, 284, 204, 283, 282, 204, 205, 283, 203, 281, 280, 203, 282, 281, 203, 204, 282, 202, 203, 280, 201, 280, 279, 201, 202, 280, 200, 278, 277, 200, 279, 278, 200, 201, 279, 199, 200, 277, 198, 277, 276, 198, 199, 277, 197, 276, 275, 197, 198, 276, 196, 275, 274, 196, 197, 275, 195, 274, 273, 195, 196, 274, 194, 195, 273, 194, 273, 272, 193, 194, 272, 193, 272, 271, 192, 193, 271, 192, 271, 270, 191, 270, 269, 191, 192, 270, 190, 268, 267, 190, 269, 268, 190, 191, 269, 189, 267, 266, 189, 190, 267, 188, 189, 266, 187, 266, 265, 187, 188, 266, 186, 265, 264, 186, 187, 265, 185, 264, 263, 185, 186, 264, 184, 263, 262, 184, 185, 263, 183, 262, 261, 183, 184, 262, 182, 261, 260, 182, 183, 261, 181, 259, 258, 181, 260, 259, 181, 182, 260, 180, 181, 258, 179, 257, 256, 179, 258, 257, 179, 180, 258, 178, 179, 256, 177, 256, 255, 177, 178, 256, 176, 177, 255, 176, 255, 254, 175, 176, 254, 175, 253, 252, 175, 254, 253, 174, 175, 252, 173, 174, 252, 173, 251, 250, 173, 252, 251, 172, 173, 250, 171, 172, 250, 171, 249, 248, 171, 250, 249, 170, 171, 248, 169, 170, 248, 169, 248, 247, 168, 169, 247, 168, 247, 246, 167, 168, 246, 167, 246, 245, 166, 167, 245, 166, 245, 244, 165, 166, 244, 165, 243, 242, 165, 244, 243, 164, 165, 242, 163, 164, 242, 163, 242, 241, 162, 163, 241, 162, 241, 240, 161, 162, 240, 161, 239, 238, 161, 240, 239, 160, 161, 238, 159, 160, 238, 159, 238, 237, 158, 159, 237, 158, 237, 236, 157, 158, 236, 157, 235, 234, 157, 236, 235, 156, 157, 234, 156, 234, 233, 155, 156, 233, 154, 155, 233, 154, 233, 232, 309, 308, 326, 310, 309, 326, 311, 310, 326, 312, 311, 326, 313, 312, 326, 314, 313, 326, 315, 314, 326, 316, 315, 326, 317, 316, 326, 318, 317, 326, 319, 318, 326, 320, 319, 326, 321, 320, 326, 322, 321, 326, 323, 322, 326, 324, 323, 326, 325, 324, 326, 328, 327, 326, 329, 328, 326, 330, 329, 326, 331, 330, 326, 332, 331, 326, 333, 332, 326, 334, 333, 326, 335, 334, 326, 336, 335, 326, 337, 336, 326, 338, 337, 326, 339, 338, 326, 340, 339, 326, 341, 340, 326, 342, 341, 326, 343, 342, 326, 344, 343, 326, 345, 344, 326, 346, 345, 326, 347, 346, 326, 348, 347, 326, 349, 348, 326, 350, 349, 326, 351, 350, 326, 352, 351, 326, 353, 352, 326, 354, 353, 326, 355, 354, 326, 356, 355, 326, 357, 356, 326, 358, 357, 326, 359, 358, 326, 360, 359, 326, 361, 360, 326, 362, 361, 326, 363, 362, 326, 364, 363, 326, 365, 364, 326, 366, 365, 326, 367, 366, 326, 368, 367, 326, 369, 368, 326, 370, 369, 326, 371, 370, 326, 372, 371, 326, 373, 372, 326, 374, 373, 326, 375, 374, 326, 376, 375, 326, 377, 376, 326, 378, 377, 326, 379, 378, 326, 380, 379, 326, 381, 380, 326, 382, 381, 326, 383, 382, 326, 384, 383, 326, 385, 384, 326, 386, 385, 326, 387, 386, 326, 388, 387, 326, 389, 388, 326, 390, 389, 326, 391, 390, 326, 392, 391, 326, 393, 392, 326, 394, 393, 326, 395, 394, 326, 396, 395, 326, 397, 396, 326, 398, 397, 326, 399, 398, 326, 400, 399, 326, 401, 400, 326, 402, 401, 326, 403, 402, 326, 404, 403, 326, 405, 404, 326, 406, 405, 326, 407, 406, 326, 408, 407, 326, 409, 408, 326, 410, 409, 326, 411, 410, 326, 412, 411, 326, 413, 412, 326, 414, 413, 326, 415, 414, 326, 416, 415, 326, 417, 416, 326, 418, 417, 326, 419, 418, 326, 420, 419, 326, 421, 420, 326, 422, 421, 326, 423, 422, 326, 424, 423, 326, 425, 424, 326, 426, 425, 326, 427, 426, 326, 428, 427, 326, 429, 428, 326, 430, 429, 326, 431, 430, 326, 432, 431, 326, 433, 432, 326, 434, 433, 326, 435, 434, 326, 436, 435, 326, 437, 436, 326, 438, 437, 326, 439, 438, 326, 440, 439, 326, 441, 440, 326, 442, 441, 326, 443, 442, 326, 444, 443, 326, 445, 444, 326, 446, 445, 326, 447, 446, 326, 448, 447, 326, 449, 448, 326, 450, 449, 326, 451, 450, 326, 452, 451, 326, 453, 452, 326, 454, 453, 326, 455, 454, 326, 456, 455, 326, 457, 456, 326, 458, 457, 326, 459, 458, 326, 308, 459, 326, 478, 460, 461, 478, 461, 462, 478, 462, 463, 478, 463, 464, 478, 464, 465, 478, 465, 466, 478, 466, 467, 478, 467, 468, 478, 468, 469, 478, 469, 470, 478, 470, 471, 478, 471, 472, 478, 472, 473, 478, 473, 474, 478, 474, 475, 478, 475, 476, 478, 476, 477, 478, 479, 480, 478, 480, 481, 478, 481, 482, 478, 482, 483, 478, 483, 484, 478, 484, 485, 478, 485, 486, 478, 486, 487, 478, 487, 488, 478, 488, 489, 478, 489, 490, 478, 490, 491, 478, 491, 492, 478, 492, 493, 478, 493, 494, 478, 494, 495, 478, 495, 496, 478, 496, 497, 478, 497, 498, 478, 498, 499, 478, 499, 500, 478, 500, 501, 478, 501, 502, 478, 502, 503, 478, 503, 504, 478, 504, 505, 478, 505, 506, 478, 506, 507, 478, 507, 508, 478, 508, 509, 478, 509, 510, 478, 510, 511, 478, 511, 512, 478, 512, 513, 478, 513, 514, 478, 514, 515, 478, 515, 516, 478, 516, 517, 478, 517, 518, 478, 518, 519, 478, 519, 520, 478, 520, 521, 478, 521, 522, 478, 522, 523, 478, 523, 524, 478, 524, 525, 478, 525, 526, 478, 526, 527, 478, 527, 528, 478, 528, 529, 478, 529, 530, 478, 530, 531, 478, 531, 532, 478, 532, 533, 478, 533, 534, 478, 534, 535, 478, 535, 536, 478, 536, 537, 478, 537, 538, 478, 538, 539, 478, 539, 540, 478, 540, 541, 478, 541, 542, 478, 542, 543, 478, 543, 544, 478, 544, 545, 478, 545, 546, 478, 546, 547, 478, 547, 548, 478, 548, 549, 478, 549, 550, 478, 550, 551, 478, 551, 552, 478, 552, 553, 478, 553, 554, 478, 554, 555, 478, 555, 556, 478, 556, 557, 478, 557, 558, 478, 558, 559, 478, 559, 560, 478, 560, 561, 478, 561, 562, 478, 562, 563, 478, 563, 564, 478, 564, 565, 478, 565, 566, 478, 566, 567, 478, 567, 568, 478, 568, 569, 478, 569, 570, 478, 570, 571, 478, 571, 572, 478, 572, 573, 478, 573, 574, 478, 574, 575, 478, 575, 576, 478, 576, 577, 478, 577, 578, 478, 578, 579, 478, 579, 580, 478, 580, 581, 478, 581, 582, 478, 582, 583, 478, 583, 584, 478, 584, 585, 478, 585, 586, 478, 586, 587, 478, 587, 588, 478, 588, 589, 478, 589, 590, 478, 590, 591, 478, 591, 592, 478, 592, 593, 478, 593, 594, 478, 594, 595, 478, 595, 596, 478, 596, 597, 478, 597, 598, 478, 598, 599, 478, 599, 600, 478, 600, 601, 478, 601, 602, 478, 602, 603, 478, 603, 604, 478, 604, 605, 478, 605, 606, 478, 606, 607, 478, 607, 608, 478, 608, 609, 478, 609, 610, 478, 610, 611, 478, 611, 460]
            point3f[] points = [(-0.04, 4.898587e-18, 2.46), (-0.039958756, -0.0018159967, 2.46), (-0.03983214, -0.00366068, 2.46), (-0.039616082, -0.0055286638, 2.46), (-0.0393069, -0.0074140094, 2.46), (-0.038901404, -0.009310257, 2.46), (-0.038396947, -0.011210464, 2.46), (-0.037791528, -0.013107265, 2.46), (-0.037159238, -0.014805102, 2.46), (-0.036518987, -0.016320646, 2.46), (-0.035811353, -0.01781985, 2.46), (-0.035036754, -0.019298337, 2.46), (-0.034195993, -0.020751724, 2.46), (-0.033290245, -0.022175655, 2.46), (-0.032321062, -0.023565844, 2.46), (-0.03129037, -0.02491812, 2.46), (-0.030200457, -0.026228465, 2.46), (-0.029053956, -0.027493047, 2.46), (-0.027853826, -0.028708264, 2.46), (-0.026603324, -0.029870775, 2.46), (-0.02530598, -0.03097753, 2.46), (-0.023965562, -0.0320258, 2.46), (-0.022586038, -0.03301319, 2.46), (-0.02117154, -0.033937678, 2.46), (-0.019726323, -0.03479759, 2.46), (-0.018254725, -0.035591643, 2.46), (-0.016761128, -0.036318928, 2.46), (-0.015249914, -0.036978915, 2.46), (-0.013725431, -0.037571434, 2.46), (-0.012191955, -0.03809667, 2.46), (-0.010653659, -0.03855515, 2.46), (-0.009114578, -0.038947716, 2.46), (-0.007578586, -0.0392755, 2.46), (-0.006049372, -0.03953992, 2.46), (-0.0045304177, -0.039742615, 2.46), (-0.0030249858, -0.039885454, 2.46), (-0.0015361055, -0.039970495, 2.46), (-0.000066565386, -0.039999943, 2.46), (0.001401125, -0.039975453, 2.46), (0.0028883517, -0.039895583, 2.46), (0.004392395, -0.039758105, 2.46), (0.0059102466, -0.03956095, 2.46), (0.0074386657, -0.03930224, 2.46), (0.008974189, -0.0389803, 2.46), (0.0105131455, -0.038593702, 2.46), (0.012051678, -0.038141277, 2.46), (0.013585765, -0.03762216, 2.46), (0.015111245, -0.037035797, 2.46), (0.01662385, -0.036381967, 2.46), (0.018119238, -0.035660807, 2.46), (0.019593025, -0.03487282, 2.46), (0.02104083, -0.03401887, 2.46), (0.022458311, -0.033100214, 2.46), (0.0238412, -0.032118484, 2.46), (0.025185356, -0.031075679, 2.46), (0.02648679, -0.029974155, 2.46), (0.027741719, -0.02881661, 2.46), (0.028946586, -0.02760607, 2.46), (0.03009811, -0.026345849, 2.46), (0.031193303, -0.025039526, 2.46), (0.032229498, -0.023690913, 2.46), (0.033204384, -0.022304013, 2.46), (0.034115992, -0.020882986, 2.46), (0.03496274, -0.019432109, 2.46), (0.035743415, -0.01795573, 2.46), (0.03645719, -0.016458236, 2.46), (0.037103597, -0.014944002, 2.46), (0.037682544, -0.013417369, 2.46), (0.03819429, -0.011882591, 2.46), (0.03863943, -0.010343818, 2.46), (0.039018854, -0.008805053, 2.46), (0.039333764, -0.0072701355, 2.46), (0.03958562, -0.005742713, 2.46), (0.039776113, -0.0042262254, 2.46), (0.039907146, -0.0027238892, 2.46), (0.039977092, -0.0013535805, 2.46), (0.04, 6.159095e-17, 2.46), (-0.04, 4.898587e-18, 0), (-0.039958756, -0.0018159967, 0), (-0.03983214, -0.00366068, 0), (-0.039616082, -0.0055286638, 0), (-0.0393069, -0.0074140094, 0), (-0.038901404, -0.009310257, 0), (-0.038396947, -0.011210464, 0), (-0.037791528, -0.013107265, 0), (-0.037159238, -0.014805102, 0), (-0.036518987, -0.016320646, 0), (-0.035811353, -0.01781985, 0), (-0.035036754, -0.019298337, 0), (-0.034195993, -0.020751724, 0), (-0.033290245, -0.022175655, 0), (-0.032321062, -0.023565844, 0), (-0.03129037, -0.02491812, 0), (-0.030200457, -0.026228465, 0), (-0.029053956, -0.027493047, 0), (-0.027853826, -0.028708264, 0), (-0.026603324, -0.029870775, 0), (-0.02530598, -0.03097753, 0), (-0.023965562, -0.0320258, 0), (-0.022586038, -0.03301319, 0), (-0.02117154, -0.033937678, 0), (-0.019726323, -0.03479759, 0), (-0.018254725, -0.035591643, 0), (-0.016761128, -0.036318928, 0), (-0.015249914, -0.036978915, 0), (-0.013725431, -0.037571434, 0), (-0.012191955, -0.03809667, 0), (-0.010653659, -0.03855515, 0), (-0.009114578, -0.038947716, 0), (-0.007578586, -0.0392755, 0), (-0.006049372, -0.03953992, 0), (-0.0045304177, -0.039742615, 0), (-0.0030249858, -0.039885454, 0), (-0.0015361055, -0.039970495, 0), (-0.000066565386, -0.039999943, 0), (0.001401125, -0.039975453, 0), (0.0028883517, -0.039895583, 0), (0.004392395, -0.039758105, 0), (0.0059102466, -0.03956095, 0), (0.0074386657, -0.03930224, 0), (0.008974189, -0.0389803, 0), (0.0105131455, -0.038593702, 0), (0.012051678, -0.038141277, 0), (0.013585765, -0.03762216, 0), (0.015111245, -0.037035797, 0), (0.01662385, -0.036381967, 0), (0.018119238, -0.035660807, 0), (0.019593025, -0.03487282, 0), (0.02104083, -0.03401887, 0), (0.022458311, -0.033100214, 0), (0.0238412, -0.032118484, 0), (0.025185356, -0.031075679, 0), (0.02648679, -0.029974155, 0), (0.027741719, -0.02881661, 0), (0.028946586, -0.02760607, 0), (0.03009811, -0.026345849, 0), (0.031193303, -0.025039526, 0), (0.032229498, -0.023690913, 0), (0.033204384, -0.022304013, 0), (0.034115992, -0.020882986, 0), (0.03496274, -0.019432109, 0), (0.035743415, -0.01795573, 0), (0.03645719, -0.016458236, 0), (0.037103597, -0.014944002, 0), (0.037682544, -0.013417369, 0), (0.03819429, -0.011882591, 0), (0.03863943, -0.010343818, 0), (0.039018854, -0.008805053, 0), (0.039333764, -0.0072701355, 0), (0.03958562, -0.005742713, 0), (0.039776113, -0.0042262254, 0), (0.039907146, -0.0027238892, 0), (0.039977092, -0.0013535805, 0), (0.04, 6.12571e-17, 0), (0.04, 6.12571e-17, 0), (0.039958756, 0.0018159967, 0), (0.03983214, 0.00366068, 0), (0.039616082, 0.0055286638, 0), (0.0393069, 0.0074140094, 0), (0.038901404, 0.009310257, 0), (0.038396947, 0.011210464, 0), (0.037791528, 0.013107265, 0), (0.037159238, 0.014805102, 0), (0.036518987, 0.016320646, 0), (0.035811353, 0.01781985, 0), (0.035036754, 0.019298337, 0), (0.034195993, 0.020751724, 0), (0.033290245, 0.022175655, 0), (0.032321062, 0.023565844, 0), (0.03129037, 0.02491812, 0), (0.030200457, 0.026228465, 0), (0.029053956, 0.027493047, 0), (0.027853826, 0.028708264, 0), (0.026603324, 0.029870775, 0), (0.02530598, 0.03097753, 0), (0.023965562, 0.0320258, 0), (0.022586038, 0.03301319, 0), (0.02117154, 0.033937678, 0), (0.019726323, 0.03479759, 0), (0.018254725, 0.035591643, 0), (0.016761128, 0.036318928, 0), (0.015249914, 0.036978915, 0), (0.013725431, 0.037571434, 0), (0.012191955, 0.03809667, 0), (0.010653659, 0.03855515, 0), (0.009114578, 0.038947716, 0), (0.007578586, 0.0392755, 0), (0.006049372, 0.03953992, 0), (0.0045304177, 0.039742615, 0), (0.0030249858, 0.039885454, 0), (0.0015361055, 0.039970495, 0), (0.000066565386, 0.039999943, 0), (-0.001401125, 0.039975453, 0), (-0.0028883517, 0.039895583, 0), (-0.004392395, 0.039758105, 0), (-0.0059102466, 0.03956095, 0), (-0.0074386657, 0.03930224, 0), (-0.008974189, 0.0389803, 0), (-0.0105131455, 0.038593702, 0), (-0.012051678, 0.038141277, 0), (-0.013585765, 0.03762216, 0), (-0.015111245, 0.037035797, 0), (-0.01662385, 0.036381967, 0), (-0.018119238, 0.035660807, 0), (-0.019593025, 0.03487282, 0), (-0.02104083, 0.03401887, 0), (-0.022458311, 0.033100214, 0), (-0.0238412, 0.032118484, 0), (-0.025185356, 0.031075679, 0), (-0.02648679, 0.029974155, 0), (-0.027741719, 0.02881661, 0), (-0.028946586, 0.02760607, 0), (-0.03009811, 0.026345849, 0), (-0.031193303, 0.025039526, 0), (-0.032229498, 0.023690913, 0), (-0.033204384, 0.022304013, 0), (-0.034115992, 0.020882986, 0), (-0.03496274, 0.019432109, 0), (-0.035743415, 0.01795573, 0), (-0.03645719, 0.016458236, 0), (-0.037103597, 0.014944002, 0), (-0.037682544, 0.013417369, 0), (-0.03819429, 0.011882591, 0), (-0.03863943, 0.010343818, 0), (-0.039018854, 0.008805053, 0), (-0.039333764, 0.0072701355, 0), (-0.03958562, 0.005742713, 0), (-0.039776113, 0.0042262254, 0), (-0.039907146, 0.0027238892, 0), (-0.039977092, 0.0013535805, 0), (-0.04, 4.898587e-18, 0), (-0.04, 4.898587e-18, 2.46), (0.04, 6.159095e-17, 2.46), (0.039958756, 0.0018159967, 2.46), (0.03983214, 0.00366068, 2.46), (0.039616082, 0.0055286638, 2.46), (0.0393069, 0.0074140094, 2.46), (0.038901404, 0.009310257, 2.46), (0.038396947, 0.011210464, 2.46), (0.037791528, 0.013107265, 2.46), (0.037159238, 0.014805102, 2.46), (0.036518987, 0.016320646, 2.46), (0.035811353, 0.01781985, 2.46), (0.035036754, 0.019298337, 2.46), (0.034195993, 0.020751724, 2.46), (0.033290245, 0.022175655, 2.46), (0.032321062, 0.023565844, 2.46), (0.03129037, 0.02491812, 2.46), (0.030200457, 0.026228465, 2.46), (0.029053956, 0.027493047, 2.46), (0.027853826, 0.028708264, 2.46), (0.026603324, 0.029870775, 2.46), (0.02530598, 0.03097753, 2.46), (0.023965562, 0.0320258, 2.46), (0.022586038, 0.03301319, 2.46), (0.02117154, 0.033937678, 2.46), (0.019726323, 0.03479759, 2.46), (0.018254725, 0.035591643, 2.46), (0.016761128, 0.036318928, 2.46), (0.015249914, 0.036978915, 2.46), (0.013725431, 0.037571434, 2.46), (0.012191955, 0.03809667, 2.46), (0.010653659, 0.03855515, 2.46), (0.009114578, 0.038947716, 2.46), (0.007578586, 0.0392755, 2.46), (0.006049372, 0.03953992, 2.46), (0.0045304177, 0.039742615, 2.46), (0.0030249858, 0.039885454, 2.46), (0.0015361055, 0.039970495, 2.46), (0.000066565386, 0.039999943, 2.46), (-0.001401125, 0.039975453, 2.46), (-0.0028883517, 0.039895583, 2.46), (-0.004392395, 0.039758105, 2.46), (-0.0059102466, 0.03956095, 2.46), (-0.0074386657, 0.03930224, 2.46), (-0.008974189, 0.0389803, 2.46), (-0.0105131455, 0.038593702, 2.46), (-0.012051678, 0.038141277, 2.46), (-0.013585765, 0.03762216, 2.46), (-0.015111245, 0.037035797, 2.46), (-0.01662385, 0.036381967, 2.46), (-0.018119238, 0.035660807, 2.46), (-0.019593025, 0.03487282, 2.46), (-0.02104083, 0.03401887, 2.46), (-0.022458311, 0.033100214, 2.46), (-0.0238412, 0.032118484, 2.46), (-0.025185356, 0.031075679, 2.46), (-0.02648679, 0.029974155, 2.46), (-0.027741719, 0.02881661, 2.46), (-0.028946586, 0.02760607, 2.46), (-0.03009811, 0.026345849, 2.46), (-0.031193303, 0.025039526, 2.46), (-0.032229498, 0.023690913, 2.46), (-0.033204384, 0.022304013, 2.46), (-0.034115992, 0.020882986, 2.46), (-0.03496274, 0.019432109, 2.46), (-0.035743415, 0.01795573, 2.46), (-0.03645719, 0.016458236, 2.46), (-0.037103597, 0.014944002, 2.46), (-0.037682544, 0.013417369, 2.46), (-0.03819429, 0.011882591, 2.46), (-0.03863943, 0.010343818, 2.46), (-0.039018854, 0.008805053, 2.46), (-0.039333764, 0.0072701355, 2.46), (-0.03958562, 0.005742713, 2.46), (-0.039776113, 0.0042262254, 2.46), (-0.039907146, 0.0027238892, 2.46), (-0.039977092, 0.0013535805, 2.46), (0.04, 6.12571e-17, 0), (0.039958756, 0.0018159967, 0), (0.03983214, 0.00366068, 0), (0.039616082, 0.0055286638, 0), (0.0393069, 0.0074140094, 0), (0.038901404, 0.009310257, 0), (0.038396947, 0.011210464, 0), (0.037791528, 0.013107265, 0), (0.037159238, 0.014805102, 0), (0.036518987, 0.016320646, 0), (0.035811353, 0.01781985, 0), (0.035036754, 0.019298337, 0), (0.034195993, 0.020751724, 0), (0.033290245, 0.022175655, 0), (0.032321062, 0.023565844, 0), (0.03129037, 0.02491812, 0), (0.030200457, 0.026228465, 0), (0.029053956, 0.027493047, 0), (0.027853826, 0.028708264, 0), (0.026603324, 0.029870775, 0), (0.02530598, 0.03097753, 0), (0.023965562, 0.0320258, 0), (0.022586038, 0.03301319, 0), (0.02117154, 0.033937678, 0), (0.019726323, 0.03479759, 0), (0.018254725, 0.035591643, 0), (0.016761128, 0.036318928, 0), (0.015249914, 0.036978915, 0), (0.013725431, 0.037571434, 0), (0.012191955, 0.03809667, 0), (0.010653659, 0.03855515, 0), (0.009114578, 0.038947716, 0), (0.007578586, 0.0392755, 0), (0.006049372, 0.03953992, 0), (0.0045304177, 0.039742615, 0), (0.0030249858, 0.039885454, 0), (0.0015361055, 0.039970495, 0), (0.000066565386, 0.039999943, 0), (-0.001401125, 0.039975453, 0), (-0.0028883517, 0.039895583, 0), (-0.004392395, 0.039758105, 0), (-0.0059102466, 0.03956095, 0), (-0.0074386657, 0.03930224, 0), (-0.008974189, 0.0389803, 0), (-0.0105131455, 0.038593702, 0), (-0.012051678, 0.038141277, 0), (-0.013585765, 0.03762216, 0), (-0.015111245, 0.037035797, 0), (-0.01662385, 0.036381967, 0), (-0.018119238, 0.035660807, 0), (-0.019593025, 0.03487282, 0), (-0.02104083, 0.03401887, 0), (-0.022458311, 0.033100214, 0), (-0.0238412, 0.032118484, 0), (-0.025185356, 0.031075679, 0), (-0.02648679, 0.029974155, 0), (-0.027741719, 0.02881661, 0), (-0.028946586, 0.02760607, 0), (-0.03009811, 0.026345849, 0), (-0.031193303, 0.025039526, 0), (-0.032229498, 0.023690913, 0), (-0.033204384, 0.022304013, 0), (-0.034115992, 0.020882986, 0), (-0.03496274, 0.019432109, 0), (-0.035743415, 0.01795573, 0), (-0.03645719, 0.016458236, 0), (-0.037103597, 0.014944002, 0), (-0.037682544, 0.013417369, 0), (-0.03819429, 0.011882591, 0), (-0.03863943, 0.010343818, 0), (-0.039018854, 0.008805053, 0), (-0.039333764, 0.0072701355, 0), (-0.03958562, 0.005742713, 0), (-0.039776113, 0.0042262254, 0), (-0.039907146, 0.0027238892, 0), (-0.039977092, 0.0013535805, 0), (-0.04, 4.898587e-18, 0), (-0.039958756, -0.0018159967, 0), (-0.03983214, -0.00366068, 0), (-0.039616082, -0.0055286638, 0), (-0.0393069, -0.0074140094, 0), (-0.038901404, -0.009310257, 0), (-0.038396947, -0.011210464, 0), (-0.037791528, -0.013107265, 0), (-0.037159238, -0.014805102, 0), (-0.036518987, -0.016320646, 0), (-0.035811353, -0.01781985, 0), (-0.035036754, -0.019298337, 0), (-0.034195993, -0.020751724, 0), (-0.033290245, -0.022175655, 0), (-0.032321062, -0.023565844, 0), (-0.03129037, -0.02491812, 0), (-0.030200457, -0.026228465, 0), (-0.029053956, -0.027493047, 0), (-0.027853826, -0.028708264, 0), (-0.026603324, -0.029870775, 0), (-0.02530598, -0.03097753, 0), (-0.023965562, -0.0320258, 0), (-0.022586038, -0.03301319, 0), (-0.02117154, -0.033937678, 0), (-0.019726323, -0.03479759, 0), (-0.018254725, -0.035591643, 0), (-0.016761128, -0.036318928, 0), (-0.015249914, -0.036978915, 0), (-0.013725431, -0.037571434, 0), (-0.012191955, -0.03809667, 0), (-0.010653659, -0.03855515, 0), (-0.009114578, -0.038947716, 0), (-0.007578586, -0.0392755, 0), (-0.006049372, -0.03953992, 0), (-0.0045304177, -0.039742615, 0), (-0.0030249858, -0.039885454, 0), (-0.0015361055, -0.039970495, 0), (-0.000066565386, -0.039999943, 0), (0.001401125, -0.039975453, 0), (0.0028883517, -0.039895583, 0), (0.004392395, -0.039758105, 0), (0.0059102466, -0.03956095, 0), (0.0074386657, -0.03930224, 0), (0.008974189, -0.0389803, 0), (0.0105131455, -0.038593702, 0), (0.012051678, -0.038141277, 0), (0.013585765, -0.03762216, 0), (0.015111245, -0.037035797, 0), (0.01662385, -0.036381967, 0), (0.018119238, -0.035660807, 0), (0.019593025, -0.03487282, 0), (0.02104083, -0.03401887, 0), (0.022458311, -0.033100214, 0), (0.0238412, -0.032118484, 0), (0.025185356, -0.031075679, 0), (0.02648679, -0.029974155, 0), (0.027741719, -0.02881661, 0), (0.028946586, -0.02760607, 0), (0.03009811, -0.026345849, 0), (0.031193303, -0.025039526, 0), (0.032229498, -0.023690913, 0), (0.033204384, -0.022304013, 0), (0.034115992, -0.020882986, 0), (0.03496274, -0.019432109, 0), (0.035743415, -0.01795573, 0), (0.03645719, -0.016458236, 0), (0.037103597, -0.014944002, 0), (0.037682544, -0.013417369, 0), (0.03819429, -0.011882591, 0), (0.03863943, -0.010343818, 0), (0.039018854, -0.008805053, 0), (0.039333764, -0.0072701355, 0), (0.03958562, -0.005742713, 0), (0.039776113, -0.0042262254, 0), (0.039907146, -0.0027238892, 0), (0.039977092, -0.0013535805, 0), (0.04, 6.159095e-17, 2.46), (0.039958756, 0.0018159967, 2.46), (0.03983214, 0.00366068, 2.46), (0.039616082, 0.0055286638, 2.46), (0.0393069, 0.0074140094, 2.46), (0.038901404, 0.009310257, 2.46), (0.038396947, 0.011210464, 2.46), (0.037791528, 0.013107265, 2.46), (0.037159238, 0.014805102, 2.46), (0.036518987, 0.016320646, 2.46), (0.035811353, 0.01781985, 2.46), (0.035036754, 0.019298337, 2.46), (0.034195993, 0.020751724, 2.46), (0.033290245, 0.022175655, 2.46), (0.032321062, 0.023565844, 2.46), (0.03129037, 0.02491812, 2.46), (0.030200457, 0.026228465, 2.46), (0.029053956, 0.027493047, 2.46), (0.027853826, 0.028708264, 2.46), (0.026603324, 0.029870775, 2.46), (0.02530598, 0.03097753, 2.46), (0.023965562, 0.0320258, 2.46), (0.022586038, 0.03301319, 2.46), (0.02117154, 0.033937678, 2.46), (0.019726323, 0.03479759, 2.46), (0.018254725, 0.035591643, 2.46), (0.016761128, 0.036318928, 2.46), (0.015249914, 0.036978915, 2.46), (0.013725431, 0.037571434, 2.46), (0.012191955, 0.03809667, 2.46), (0.010653659, 0.03855515, 2.46), (0.009114578, 0.038947716, 2.46), (0.007578586, 0.0392755, 2.46), (0.006049372, 0.03953992, 2.46), (0.0045304177, 0.039742615, 2.46), (0.0030249858, 0.039885454, 2.46), (0.0015361055, 0.039970495, 2.46), (0.000066565386, 0.039999943, 2.46), (-0.001401125, 0.039975453, 2.46), (-0.0028883517, 0.039895583, 2.46), (-0.004392395, 0.039758105, 2.46), (-0.0059102466, 0.03956095, 2.46), (-0.0074386657, 0.03930224, 2.46), (-0.008974189, 0.0389803, 2.46), (-0.0105131455, 0.038593702, 2.46), (-0.012051678, 0.038141277, 2.46), (-0.013585765, 0.03762216, 2.46), (-0.015111245, 0.037035797, 2.46), (-0.01662385, 0.036381967, 2.46), (-0.018119238, 0.035660807, 2.46), (-0.019593025, 0.03487282, 2.46), (-0.02104083, 0.03401887, 2.46), (-0.022458311, 0.033100214, 2.46), (-0.0238412, 0.032118484, 2.46), (-0.025185356, 0.031075679, 2.46), (-0.02648679, 0.029974155, 2.46), (-0.027741719, 0.02881661, 2.46), (-0.028946586, 0.02760607, 2.46), (-0.03009811, 0.026345849, 2.46), (-0.031193303, 0.025039526, 2.46), (-0.032229498, 0.023690913, 2.46), (-0.033204384, 0.022304013, 2.46), (-0.034115992, 0.020882986, 2.46), (-0.03496274, 0.019432109, 2.46), (-0.035743415, 0.01795573, 2.46), (-0.03645719, 0.016458236, 2.46), (-0.037103597, 0.014944002, 2.46), (-0.037682544, 0.013417369, 2.46), (-0.03819429, 0.011882591, 2.46), (-0.03863943, 0.010343818, 2.46), (-0.039018854, 0.008805053, 2.46), (-0.039333764, 0.0072701355, 2.46), (-0.03958562, 0.005742713, 2.46), (-0.039776113, 0.0042262254, 2.46), (-0.039907146, 0.0027238892, 2.46), (-0.039977092, 0.0013535805, 2.46), (-0.04, 4.898587e-18, 2.46), (-0.039958756, -0.0018159967, 2.46), (-0.03983214, -0.00366068, 2.46), (-0.039616082, -0.0055286638, 2.46), (-0.0393069, -0.0074140094, 2.46), (-0.038901404, -0.009310257, 2.46), (-0.038396947, -0.011210464, 2.46), (-0.037791528, -0.013107265, 2.46), (-0.037159238, -0.014805102, 2.46), (-0.036518987, -0.016320646, 2.46), (-0.035811353, -0.01781985, 2.46), (-0.035036754, -0.019298337, 2.46), (-0.034195993, -0.020751724, 2.46), (-0.033290245, -0.022175655, 2.46), (-0.032321062, -0.023565844, 2.46), (-0.03129037, -0.02491812, 2.46), (-0.030200457, -0.026228465, 2.46), (-0.029053956, -0.027493047, 2.46), (-0.027853826, -0.028708264, 2.46), (-0.026603324, -0.029870775, 2.46), (-0.02530598, -0.03097753, 2.46), (-0.023965562, -0.0320258, 2.46), (-0.022586038, -0.03301319, 2.46), (-0.02117154, -0.033937678, 2.46), (-0.019726323, -0.03479759, 2.46), (-0.018254725, -0.035591643, 2.46), (-0.016761128, -0.036318928, 2.46), (-0.015249914, -0.036978915, 2.46), (-0.013725431, -0.037571434, 2.46), (-0.012191955, -0.03809667, 2.46), (-0.010653659, -0.03855515, 2.46), (-0.009114578, -0.038947716, 2.46), (-0.007578586, -0.0392755, 2.46), (-0.006049372, -0.03953992, 2.46), (-0.0045304177, -0.039742615, 2.46), (-0.0030249858, -0.039885454, 2.46), (-0.0015361055, -0.039970495, 2.46), (-0.000066565386, -0.039999943, 2.46), (0.001401125, -0.039975453, 2.46), (0.0028883517, -0.039895583, 2.46), (0.004392395, -0.039758105, 2.46), (0.0059102466, -0.03956095, 2.46), (0.0074386657, -0.03930224, 2.46), (0.008974189, -0.0389803, 2.46), (0.0105131455, -0.038593702, 2.46), (0.012051678, -0.038141277, 2.46), (0.013585765, -0.03762216, 2.46), (0.015111245, -0.037035797, 2.46), (0.01662385, -0.036381967, 2.46), (0.018119238, -0.035660807, 2.46), (0.019593025, -0.03487282, 2.46), (0.02104083, -0.03401887, 2.46), (0.022458311, -0.033100214, 2.46), (0.0238412, -0.032118484, 2.46), (0.025185356, -0.031075679, 2.46), (0.02648679, -0.029974155, 2.46), (0.027741719, -0.02881661, 2.46), (0.028946586, -0.02760607, 2.46), (0.03009811, -0.026345849, 2.46), (0.031193303, -0.025039526, 2.46), (0.032229498, -0.023690913, 2.46), (0.033204384, -0.022304013, 2.46), (0.034115992, -0.020882986, 2.46), (0.03496274, -0.019432109, 2.46), (0.035743415, -0.01795573, 2.46), (0.03645719, -0.016458236, 2.46), (0.037103597, -0.014944002, 2.46), (0.037682544, -0.013417369, 2.46), (0.03819429, -0.011882591, 2.46), (0.03863943, -0.010343818, 2.46), (0.039018854, -0.008805053, 2.46), (0.039333764, -0.0072701355, 2.46), (0.03958562, -0.005742713, 2.46), (0.039776113, -0.0042262254, 2.46), (0.039907146, -0.0027238892, 2.46), (0.039977092, -0.0013535805, 2.46)]
            color3f[] primvars:displayColor = [(0.1, 0.55, 0.7)]
            uniform token purpose = "proxy"
            uniform token subdivisionScheme = "none"
        }

        def BasisCurves "Edges" (
            prepend apiSchemas = ["AecoDerivedGeometryAPI"]
        )
        {
            uniform token aeco:derived:approx = "arcSegmented"
            rel aeco:derived:from = </World/Pipe/BodyExact>
            uniform token aeco:derived:role = "wireframe"
            string aeco:derived:source = "d2a39da9-fd0a-5f4f-8514-a22dd5d5cb39"
            string aeco:derived:stamp = "aeco-ifc-exact 0.2.0 source=c6b7d6bad016f1219cc91f2940eace7b851a27dfe7b64e5f5064a0af7759b96a"
            double aeco:derived:tolerance = 0.0001
            int[] curveVertexCounts = [33, 2, 33, 2, 33, 33]
            point3f[] points = [(-0.04, 4.898587e-18, 2.46), (-0.039838195, -0.0035941775, 2.46), (-0.039332215, -0.007278522, 2.46), (-0.03845596, -0.011006328, 2.46), (-0.037191533, -0.014723788, 2.46), (-0.03553136, -0.018371783, 2.46), (-0.03347982, -0.02188839, 2.46), (-0.031054128, -0.025211925, 2.46), (-0.02828427, -0.02828427, 2.46), (-0.025211925, -0.031054128, 2.46), (-0.02188839, -0.03347982, 2.46), (-0.018371783, -0.03553136, 2.46), (-0.014723788, -0.037191533, 2.46), (-0.011006328, -0.03845596, 2.46), (-0.007278522, -0.039332215, 2.46), (-0.0035941775, -0.039838195, 2.46), (6.3706394e-17, -0.04, 2.46), (0.0035941775, -0.039838195, 2.46), (0.007278522, -0.039332215, 2.46), (0.011006328, -0.03845596, 2.46), (0.014723788, -0.037191533, 2.46), (0.018371783, -0.03553136, 2.46), (0.02188839, -0.03347982, 2.46), (0.025211925, -0.031054128, 2.46), (0.02828427, -0.02828427, 2.46), (0.031054128, -0.025211925, 2.46), (0.03347982, -0.02188839, 2.46), (0.03553136, -0.018371783, 2.46), (0.037191533, -0.014723788, 2.46), (0.03845596, -0.011006328, 2.46), (0.039332215, -0.007278522, 2.46), (0.039838195, -0.0035941775, 2.46), (0.04, -1.9179102e-16, 2.46), (-0.04, 4.898587e-18, 2.46), (-0.04, 4.898587e-18, 0), (-0.04, 4.898587e-18, 0), (-0.039838195, -0.0035941775, 0), (-0.039332215, -0.007278522, 0), (-0.03845596, -0.011006328, 0), (-0.037191533, -0.014723788, 0), (-0.03553136, -0.018371783, 0), (-0.03347982, -0.02188839, 0), (-0.031054128, -0.025211925, 0), (-0.02828427, -0.02828427, 0), (-0.025211925, -0.031054128, 0), (-0.02188839, -0.03347982, 0), (-0.018371783, -0.03553136, 0), (-0.014723788, -0.037191533, 0), (-0.011006328, -0.03845596, 0), (-0.007278522, -0.039332215, 0), (-0.0035941775, -0.039838195, 0), (6.3706394e-17, -0.04, 0), (0.0035941775, -0.039838195, 0), (0.007278522, -0.039332215, 0), (0.011006328, -0.03845596, 0), (0.014723788, -0.037191533, 0), (0.018371783, -0.03553136, 0), (0.02188839, -0.03347982, 0), (0.025211925, -0.031054128, 0), (0.02828427, -0.02828427, 0), (0.031054128, -0.025211925, 0), (0.03347982, -0.02188839, 0), (0.03553136, -0.018371783, 0), (0.037191533, -0.014723788, 0), (0.03845596, -0.011006328, 0), (0.039332215, -0.007278522, 0), (0.039838195, -0.0035941775, 0), (0.04, -1.9179102e-16, 0), (0.04, -9.797174e-18, 0), (0.04, -9.797174e-18, 2.46), (0.04, 0, 0), (0.039838195, 0.0035941775, 0), (0.039332215, 0.007278522, 0), (0.03845596, 0.011006328, 0), (0.037191533, 0.014723788, 0), (0.03553136, 0.018371783, 0), (0.03347982, 0.02188839, 0), (0.031054128, 0.025211925, 0), (0.02828427, 0.02828427, 0), (0.025211925, 0.031054128, 0), (0.02188839, 0.03347982, 0), (0.018371783, 0.03553136, 0), (0.014723788, 0.037191533, 0), (0.011006328, 0.03845596, 0), (0.007278522, 0.039332215, 0), (0.0035941775, 0.039838195, 0), (2.4492936e-18, 0.04, 0), (-0.0035941775, 0.039838195, 0), (-0.007278522, 0.039332215, 0), (-0.011006328, 0.03845596, 0), (-0.014723788, 0.037191533, 0), (-0.018371783, 0.03553136, 0), (-0.02188839, 0.03347982, 0), (-0.025211925, 0.031054128, 0), (-0.02828427, 0.02828427, 0), (-0.031054128, 0.025211925, 0), (-0.03347982, 0.02188839, 0), (-0.03553136, 0.018371783, 0), (-0.037191533, 0.014723788, 0), (-0.03845596, 0.011006328, 0), (-0.039332215, 0.007278522, 0), (-0.039838195, 0.0035941775, 0), (-0.04, 1.5959456e-16, 0), (0.04, 0, 2.46), (0.039838195, 0.0035941775, 2.46), (0.039332215, 0.007278522, 2.46), (0.03845596, 0.011006328, 2.46), (0.037191533, 0.014723788, 2.46), (0.03553136, 0.018371783, 2.46), (0.03347982, 0.02188839, 2.46), (0.031054128, 0.025211925, 2.46), (0.02828427, 0.02828427, 2.46), (0.025211925, 0.031054128, 2.46), (0.02188839, 0.03347982, 2.46), (0.018371783, 0.03553136, 2.46), (0.014723788, 0.037191533, 2.46), (0.011006328, 0.03845596, 2.46), (0.007278522, 0.039332215, 2.46), (0.0035941775, 0.039838195, 2.46), (2.4492936e-18, 0.04, 2.46), (-0.0035941775, 0.039838195, 2.46), (-0.007278522, 0.039332215, 2.46), (-0.011006328, 0.03845596, 2.46), (-0.014723788, 0.037191533, 2.46), (-0.018371783, 0.03553136, 2.46), (-0.02188839, 0.03347982, 2.46), (-0.025211925, 0.031054128, 2.46), (-0.02828427, 0.02828427, 2.46), (-0.031054128, 0.025211925, 2.46), (-0.03347982, 0.02188839, 2.46), (-0.03553136, 0.018371783, 2.46), (-0.037191533, 0.014723788, 2.46), (-0.03845596, 0.011006328, 2.46), (-0.039332215, 0.007278522, 2.46), (-0.039838195, 0.0035941775, 2.46), (-0.04, 1.5959456e-16, 2.46)]
            color3f[] primvars:displayColor = [(0.04, 0.08, 0.12)]
            uniform token purpose = "guide"
            uniform token type = "linear"
            float[] widths = [0.004] (
                interpolation = "constant"
            )
            uniform token wrap = "nonperiodic"
        }
    }
}

